<?xml version="1.0" encoding="utf-8"?>
<!-- Generator: Adobe Illustrator 18.0.0, SVG Export Plug-In . SVG Version: 6.00 Build 0)  -->
<!DOCTYPE svg PUBLIC "-//W3C//DTD SVG 1.1//EN" "http://www.w3.org/Graphics/SVG/1.1/DTD/svg11.dtd">
<svg version="1.1" id="Layer_1" xmlns="http://www.w3.org/2000/svg" xmlns:xlink="http://www.w3.org/1999/xlink" x="0px" y="0px"
	 viewBox="0 0 374.9 245.6" enable-background="new 0 0 374.9 245.6" xml:space="preserve">
<g>
	<linearGradient id="SVGID_1_" gradientUnits="userSpaceOnUse" x1="356.4863" y1="273.0734" x2="89.8104" y2="125.2526">
		<stop  offset="0.1439" style="stop-color:#010101;stop-opacity:0"/>
		<stop  offset="0.2389" style="stop-color:#010101;stop-opacity:1.504227e-02"/>
		<stop  offset="0.9415" style="stop-color:#010101;stop-opacity:0.1263"/>
	</linearGradient>
	<path fill="url(#SVGID_1_)" d="M52.6,192.4C57,196,364.9,190,364.9,190v67.9L52.6,192.4z"/>
	<path fill="#EFC820" d="M374.9,190.2c0,3.3-2.7,6-6,6h-320c-3.3,0-6-2.7-6-6v0c0-3.3,2.7-6,6-6h320
		C372.2,184.1,374.9,186.8,374.9,190.2L374.9,190.2z"/>
	<g>
		<path fill="#1A1D23" d="M325.2,147.1c0,1.7-17.6,1.2-19.3,1.2L94.6,163.4c-1.7,0-3.1-14.6-3.1-16.3V11c0-1.7,1.4-3.1,3.1-3.1
			h227.5c1.7,0,3.1,1.4,3.1,3.1V147.1z"/>
		<rect x="98" y="14.4" fill="#B7E4F8" width="220.7" height="126.1"/>
		<rect x="98.2" y="14.1" fill="#9FDCEE" width="220" height="4"/>
		<path opacity="0.5" fill="#9FDCEE" d="M221.9,115.6c0,2-1.6,3.6-3.6,3.6h-89.8c-2,0-3.6-1.6-3.6-3.6V59.7c0-2,1.6-3.6,3.6-3.6
			h89.8c2,0,3.6,1.6,3.6,3.6V115.6z"/>
		<path fill="#9FDCEE" d="M305.9,88.6c0,2-1.6,3.6-3.6,3.6h-89.8c-2,0-3.6-1.6-3.6-3.6V32.7c0-2,1.6-3.6,3.6-3.6h89.8
			c2,0,3.6,1.6,3.6,3.6V88.6z"/>
		<linearGradient id="SVGID_2_" gradientUnits="userSpaceOnUse" x1="98.0078" y1="77.4921" x2="318.6689" y2="77.4921">
			<stop  offset="0.1439" style="stop-color:#FFFFFF;stop-opacity:0"/>
			<stop  offset="0.2389" style="stop-color:#FFFFFF;stop-opacity:1.504227e-02"/>
			<stop  offset="0.9415" style="stop-color:#FFFFFF;stop-opacity:0.1263"/>
		</linearGradient>
		<polygon fill="url(#SVGID_2_)" points="98,140.5 98,14.4 318.7,14.4 		"/>
	</g>
	<path fill="#E6E6E5" d="M90.9,147.1v22.9c0,1.7,2,3.1,3.7,3.1h227.5c1.7,0,2.8-1.4,2.8-3.1v-22.9H90.9z"/>
	<g>
		<path fill="#2C3039" d="M190.9,323.1c0,5.8-3.9,11.1-10.1,11.1h-5.7c-6.2,0-12.2-5.3-12.2-11.1v-55c0-5.8,6-9.9,12.2-9.9h5.7
			c6.2,0,10.1,4.1,10.1,9.9V323.1z"/>
		<path fill="#2C3039" d="M254.9,323.1c0,5.8-4.7,11.1-11,11.1h-5.7c-6.2,0-11.4-5.3-11.4-11.1v-55c0-5.8,5.1-9.9,11.4-9.9h5.7
			c6.2,0,11,4.1,11,9.9V323.1z"/>
		<g>
			<path fill="#FBBFA9" d="M221.9,123.8c0,6.2-5.1,11.3-11.3,11.3h-2.4c-6.2,0-11.3-5.1-11.3-11.3v-16.4c0-6.2,5.1-11.3,11.3-11.3
				h2.4c6.2,0,11.3,5.1,11.3,11.3V123.8z"/>
			<linearGradient id="SVGID_3_" gradientUnits="userSpaceOnUse" x1="214.4406" y1="125.4414" x2="205.0369" y2="109.7909">
				<stop  offset="0.2144" style="stop-color:#010101;stop-opacity:0"/>
				<stop  offset="0.7477" style="stop-color:#010101;stop-opacity:0.1263"/>
			</linearGradient>
			<path fill="url(#SVGID_3_)" d="M196.9,123.9c0,0,19-7.3,25-3v-10.9l-25,4.6V123.9z"/>
			<g>
				<path fill="#FCCAB4" d="M170.3,92.5l3.7-11.7l-0.2-0.1c-3.6-5.6-8.1-10.2-11-12.2c-10.8-7.4-23.9,8.7-15.8,19.6
					C151.9,93.2,166,93.6,170.3,92.5"/>
				<path fill="#FCCAB4" d="M248.4,92.5l-3.7-11.7l0.2-0.1c3.6-5.6,8.1-10.2,11-12.2c10.8-7.4,23.9,8.7,15.8,19.6
					C266.7,93.2,252.7,93.6,248.4,92.5"/>
				<path fill="#FCCAB4" d="M255,54.8c7,35.5-20.1,62.3-44.9,62.3c-24.8,0-51.9-26.8-45-62.3c6.9-35.2,19.2-44.5,44-44.5
					C234,10.4,247.9,19.1,255,54.8z"/>
				<path fill="#412312" d="M168,30.2c-1-0.6-2-1.2-2.9-2c0-1.9,8.5-10,14.3-10c-1.1,0-2-1.5-2-3.1c17.9-17.5,38-17.3,45.1-12.1
					c0-1.5,0.8-2.8,1.8-2.8c12.4,0,22.4,10.7,22.4,24c4.5-4.1,8,3.9,1.5,4.6c6.5,2.3,11.2,34.8,3,42.8c-4.5-7.1,1.9-18-3.4-20
					c-2.4,0-5.1-3.4-5.1-5.8c4.3,0,7.3-3.5,4.8-6.1c-2.3,4.8-7.1,4.4-9.2,0.7c5.7-3.7,3.6-9.5,3.6-9.5c-1.9,3.5-18.2,9.5-39.2,3.7
					c1.6-4.3,6.8-5.8,6.8-5.8c-1.7,0-19.3,7.3-34,4c-0.4,1.3-0.6,2.3-0.5,2.4c-0.1,2,0.3,5.3,4,7.7c-2.1,3.7-6.9,4-9.2-0.7
					c-2.6,2.6-3.5,13.9,2.7,12.5c0,2.4-2.3,5.9-4.7,5.9c-5.3,1.9,1.3,7.8,1.3,7.8C157.4,71.5,163,40.3,168,30.2z"/>
				<path fill="#412312" d="M252.7,80.1c2.3-2.9,5.4-13.6,4.4-19.1c-3.3,1.1-1.6-61-74.1-36.8c-27,6.9-15.7,44.6-20.3,49.8
					c-0.1,12.6,8,23.8,20,26.3c1.1,0.2,2.3-1,2.7-2.7c6.7,7.5,29.1,12.5,53.3-2.9c0.4-1.7-0.3-3.7-1.5-3.9
					c6.5,1.4,17.9-5.7,18.3-7.8C254.7,81.9,253.7,81,252.7,80.1z"/>
			</g>
			<path fill="#2C3039" d="M256.9,253.3c0,14.7-11.7-2.2-26.4-2.2h-42.1c-14.7,0-26.6,15-26.6,0v-98.9c0-14.7,11.9-27.1,26.6-27.1
				h42.1c14.7,0,26.4,12.4,26.4,27.1V253.3z"/>
			<path fill="#F3736D" d="M221.9,320.8c0,6.2-5.1,11.3-11.3,11.3h-2.4c-6.2,0-11.3-5.1-11.3-11.3v-50.4c0-6.2,5.1-11.3,11.3-11.3
				h2.4c6.2,0,11.3,5.1,11.3,11.3V320.8z"/>
			<linearGradient id="SVGID_4_" gradientUnits="userSpaceOnUse" x1="221.8779" y1="273.2856" x2="188.229" y2="273.2856">
				<stop  offset="6.313850e-02" style="stop-color:#010101;stop-opacity:0"/>
				<stop  offset="0.7477" style="stop-color:#010101;stop-opacity:0.1263"/>
			</linearGradient>
			<path fill="url(#SVGID_4_)" d="M196.8,295.4c0,0,11.1-17.4,25.1-7.9v-36.4h-33.6l8.7,3.3l8.2,11.8l-8.2,5.8L196.8,295.4z"/>
			<path fill="#F58A81" d="M208.9,140.7c-30.7,0-55,24.9-55,55.5V244c0,0.1-0.2,0.4-0.2,0.4c0,0,0.1,0,0.4,0.1
				c-0.1,0.6-0.3,1.2-0.3,1.8v14.1c0,6.2,5.5,11.7,11.8,11.7h87.7c6.1,0,10.7-5,10.9-11.1c0,0-0.4-0.2-0.4-0.2v-0.4v-14.1v-50
				C263.9,165.6,239.6,140.7,208.9,140.7z"/>
			<g>
				<g>
					<path fill="#F3736D" d="M209.6,319.2c-1.4,3.9,0.7,8.2,4.7,9.6l39.2,13.6c3.9,1.4,8.2-0.7,9.6-4.7l0,0c1.4-3.9-0.7-8.2-4.7-9.6
						l-39.2-13.6C215.3,313.2,211,315.3,209.6,319.2L209.6,319.2z"/>
					<path fill="#F3736D" d="M209.3,319.2c1.4,3.9-0.7,8.2-4.7,9.6l-39.2,13.6c-3.9,1.4-8.2-0.7-9.6-4.7l0,0
						c-1.4-3.9,0.7-8.2,4.7-9.6l39.2-13.6C203.7,313.2,208,315.3,209.3,319.2L209.3,319.2z"/>
				</g>
				<path fill="#F3736D" d="M217.9,338.1c0,4.4-3.6,8-8,8l0,0c-4.4,0-8-3.6-8-8v-16c0-4.4,3.6-8,8-8l0,0c4.4,0,8,3.6,8,8V338.1z"/>
			</g>
		</g>
	</g>
	<g>
		<path fill="#412312" d="M73,105.5v76.3c0,0.6,0.5,1.1,1.1,1.1c0.6,0,1.1-0.5,1.1-1.1v-75.2C74.4,106.4,73.7,106,73,105.5z"/>
		<g>
			<path fill="#FFFFFF" d="M19.9,81.1v41.8c19,10.3,31-9.8,31-9.8l-0.3-41.3c0,0-11.3,20.1-30.8,9.8"/>
			<linearGradient id="SVGID_5_" gradientUnits="userSpaceOnUse" x1="20.2842" y1="104.5936" x2="44.8668" y2="105.8819">
				<stop  offset="0.163" style="stop-color:#010101;stop-opacity:0.1263"/>
				<stop  offset="0.1983" style="stop-color:#010101;stop-opacity:0.121"/>
				<stop  offset="1" style="stop-color:#010101;stop-opacity:0"/>
			</linearGradient>
			<path fill="url(#SVGID_5_)" d="M30.6,84.4c0,0,1.2,32.8,13.5,36.3c0,0-10.3,9.8-24.3,2.2c-0.8-0.4,1.2-25.5,1.2-25.5L30.6,84.4z"
				/>
			<path fill="#7CA840" d="M19.7,113.8l10.9,6.1c0,0-4.2,6.1-10.9,3L19.7,113.8z"/>
			<path fill="#E2E2E2" d="M50.9,94.3v18.8c0,0-3.7,4-5.5,1.9l0.6-10L50.9,94.3z"/>
			<path fill="#8DC641" d="M29.9,120.1V78C10.9,67.7,0,87.8,0,87.8l0.7,41.3c0,0,10.3-19.6,29.3-9.2"/>
			<path fill="#FBB03C" d="M74.9,107.1V63.9c-20-10.3-30.1,9.8-30.1,9.8l0.8,41.3c0,0,9.5-18.5,29.5-8.2"/>
		</g>
	</g>
	<path fill="#1A1D23" d="M82.6,184H64.5c0-4.3,4-9,9-9C78.6,175,82.6,179.7,82.6,184z"/>
</g>
</svg>
