<?xml version="1.0" encoding="utf-8"?>
<!-- Generator: Adobe Illustrator 18.0.0, SVG Export Plug-In . SVG Version: 6.00 Build 0)  -->
<!DOCTYPE svg PUBLIC "-//W3C//DTD SVG 1.1//EN" "http://www.w3.org/Graphics/SVG/1.1/DTD/svg11.dtd">
<svg version="1.1" id="Layer_1" xmlns="http://www.w3.org/2000/svg" xmlns:xlink="http://www.w3.org/1999/xlink" x="0px" y="0px"
	 viewBox="0 0 280.6 270.9" enable-background="new 0 0 280.6 270.9" xml:space="preserve">
<g>
	<g>
		<g>
			<g>
				<path fill-rule="evenodd" clip-rule="evenodd" fill="#ECB221" d="M205.8,61c3.8-3.8,10-3.8,13.8,0l0,0c3.8,3.8,3.8,10,0,13.8
					l-148,148c-3.8,3.8-10,3.8-13.8,0l0,0c-3.8-3.8-3.8-10,0-13.8L205.8,61z"/>
				<path fill="#2C3039" d="M202.5,78.1c19.1,19.1,15.5,53.8,34.6,34.6c19.1-19.1,65.6-65.6,30.9-100.2
					C233.4-22.2,187,24.3,167.9,43.4C148.7,62.6,183.4,58.9,202.5,78.1z"/>
				<path fill="#383E48" d="M196.5,84.1c2.4,2.4,4.4,5,6.1,7.7L242.3,52c3.8-3.8,3.8-10,0-13.8c-3.8-3.8-10-3.8-13.8,0l-39.7,39.7
					C191.5,79.7,194.1,81.7,196.5,84.1z"/>
				<path fill="#F37874" d="M56.2,202.2c2.1-2.1,5.4-2.1,7.5,0l14.7,14.7c2.1,2.1,2.1,5.4,0,7.5l-0.3,0.3c-2.1,2.1-5.4,2.1-7.5,0
					L55.9,210c-2.1-2.1-2.1-5.4,0-7.5L56.2,202.2z"/>
				<path fill="#F58A81" d="M12,217.6c-4,4-4,10.4,0,14.4L47.9,268c4,4,10.4,4,14.4,0l22.2-22.2c4-4,4-10.4,0-14.4l-35.9-35.9
					c-4-4-10.4-4-14.4,0L12,217.6z M38.6,207.8c2.5-2.5,6.8-2.3,9.3,0.2l23.2,23.2c2.5,2.5,2.3,6.4-0.2,8.9l-14.3,14.2
					c-0.1,0.1-0.2,0.4-0.3,0.5c-2.3,1.1-5,0.7-6.9-1.2c-1.8-1.8-2.2-4.5-1.2-6.8c-2.2,1-4.9,0.6-6.8-1.3c-1.8-1.8-2.2-4.5-1.3-6.8
					c-2.2,1-5,0.6-6.8-1.3c-1.8-1.8-2.3-4.5-1.3-6.8c-2.2,1-5,0.6-6.8-1.3c-1.9-1.9-2.4-4.7-1.4-7c0.1-0.2,0.2-0.4,0.3-0.6
					L38.6,207.8z"/>
			</g>
			<g>
				<path fill-rule="evenodd" clip-rule="evenodd" fill="#EFC820" d="M61,74.8c-3.8-3.8-3.8-10,0-13.8l0,0c3.8-3.8,10-3.8,13.8,0
					l148,148c3.8,3.8,3.8,10,0,13.8l0,0c-3.8,3.8-10,3.8-13.8,0L61,74.8z"/>
				<path fill="#2C3039" d="M78.1,78.1c19.1-19.1,53.8-15.5,34.6-34.6C93.6,24.3,47.1-22.2,12.5,12.5
					c-34.6,34.6,11.8,81.1,30.9,100.2C62.6,131.8,58.9,97.2,78.1,78.1z"/>
				<path fill="#383E48" d="M84.1,84.1c2.4-2.4,5-4.4,7.7-6.1L52,38.2c-3.8-3.8-10-3.8-13.8,0c-3.8,3.8-3.8,10,0,13.8l39.7,39.7
					C79.7,89,81.7,86.4,84.1,84.1z"/>
				<path fill="#F37874" d="M202.2,224.4c-2.1-2.1-2.1-5.4,0-7.5l14.7-14.7c2.1-2.1,5.4-2.1,7.5,0l0.3,0.3c2.1,2.1,2.1,5.4,0,7.5
					L210,224.7c-2.1,2.1-5.4,2.1-7.5,0L202.2,224.4z"/>
				<path fill="#F58A81" d="M217.6,268.6c4,4,10.4,4,14.4,0l35.9-35.9c4-4,4-10.4,0-14.4l-22.2-22.2c-4-4-10.4-4-14.4,0L195.5,232
					c-4,4-4,10.4,0,14.4L217.6,268.6z M207.8,242c-2.5-2.5-2.3-6.8,0.2-9.3l23.2-23.2c2.5-2.5,6.4-2.3,8.9,0.2l14.3,14.2
					c0.1,0.1,0.4,0.2,0.5,0.3c1.1,2.3,0.7,5-1.2,6.9c-1.8,1.8-4.5,2.2-6.8,1.2c1,2.2,0.6,4.9-1.3,6.8c-1.8,1.8-4.5,2.2-6.8,1.3
					c1,2.2,0.6,5-1.3,6.8c-1.8,1.8-4.5,2.3-6.8,1.3c1,2.2,0.6,5-1.3,6.8c-1.9,1.9-4.7,2.4-7,1.3c-0.2-0.1-0.4-0.2-0.6-0.3L207.8,242
					z"/>
			</g>
			<radialGradient id="SVGID_1_" cx="98.3232" cy="183.4897" r="18.9242" gradientUnits="userSpaceOnUse">
				<stop  offset="0" style="stop-color:#010101;stop-opacity:0.1263"/>
				<stop  offset="0.919" style="stop-color:#010101;stop-opacity:0"/>
			</radialGradient>
			<path fill="url(#SVGID_1_)" d="M76.9,189.9c0,0,1.4,11.7,13.5,14l14-14l-12.7-14.8L76.9,189.9z"/>
			
				<radialGradient id="SVGID_2_" cx="-231.8339" cy="182.4897" r="18.9242" gradientTransform="matrix(-1 0 0 1 -50.8447 0)" gradientUnits="userSpaceOnUse">
				<stop  offset="0" style="stop-color:#010101;stop-opacity:0.1263"/>
				<stop  offset="0.919" style="stop-color:#010101;stop-opacity:0"/>
			</radialGradient>
			<path fill="url(#SVGID_2_)" d="M202.4,188.9c0,0-1.4,11.7-13.5,14l-14-14l12.7-14.8L202.4,188.9z"/>
		</g>
		<g>
			<defs>
				<circle id="SVGID_8_" cx="140.3" cy="141.7" r="62.2"/>
			</defs>
			<clipPath id="SVGID_3_">
				<use xlink:href="#SVGID_8_"  overflow="visible"/>
			</clipPath>
			<circle clip-path="url(#SVGID_3_)" fill-rule="evenodd" clip-rule="evenodd" fill="#47C6E2" cx="140.3" cy="141.7" r="62.2"/>
			<g clip-path="url(#SVGID_3_)">
				<polygon fill-rule="evenodd" clip-rule="evenodd" fill="#47C6E2" points="156.8,182.8 182.9,186.4 175.2,192.6 169.8,196.1 
					163.5,199.2 				"/>
				<polygon fill-rule="evenodd" clip-rule="evenodd" fill="#75D0ED" points="178.3,156.1 197.6,165.4 193.4,172.9 189.1,179.3 
					182.9,186.4 				"/>
				<polygon fill-rule="evenodd" clip-rule="evenodd" fill="#75D0ED" points="156.8,182.8 163.5,199.2 155.4,201.9 145.7,203.6 
					139.6,203.9 				"/>
				<polygon fill-rule="evenodd" clip-rule="evenodd" fill="#47C6E2" points="122.4,182.9 139.6,203.9 131.3,203.3 122.5,201.5 
					115.7,199.2 				"/>
				<polygon fill-rule="evenodd" clip-rule="evenodd" fill="#75D0ED" points="95.5,185.6 122.5,182.8 115.7,199.2 109.7,196.2 
					102.5,192.5 				"/>
				<polygon fill-rule="evenodd" clip-rule="evenodd" fill="#47C6E2" points="81.9,165.4 99.7,157 95.5,185.6 93.4,183.3 86.4,174 
									"/>
				<polygon fill-rule="evenodd" clip-rule="evenodd" fill="#75D0ED" points="77.4,141.7 102.1,158.6 81.9,165.4 80.4,160.6 
					78,150.1 				"/>
				<polyline fill-rule="evenodd" clip-rule="evenodd" fill="#47C6E2" points="99.3,124.1 82.2,118 78.7,129.5 77.5,138.3 
					77.4,141.6 99.3,124.1 				"/>
				<polygon fill-rule="evenodd" clip-rule="evenodd" fill="#47C6E2" points="123,100.6 96.9,97 104.5,90.8 110,87.3 116.3,84.2 
									"/>
				<polygon fill-rule="evenodd" clip-rule="evenodd" fill="#75D0ED" points="99.3,124.1 82.2,118 86.4,110.5 90.7,104.1 96.9,97 
									"/>
				<polygon fill-rule="evenodd" clip-rule="evenodd" fill="#75D0ED" points="123,100.6 116.3,84.2 124.4,81.5 134.1,79.8 
					140.2,79.5 				"/>
				<polygon fill-rule="evenodd" clip-rule="evenodd" fill="#47C6E2" points="157.4,100.5 140.2,79.5 148.5,80.1 157.3,81.9 
					164.1,84.2 				"/>
				<polygon fill-rule="evenodd" clip-rule="evenodd" fill="#75D0ED" points="184.3,97.8 157.3,100.6 164.1,84.2 170.1,87.2 
					177.3,90.9 				"/>
				<polygon fill-rule="evenodd" clip-rule="evenodd" fill="#47C6E2" points="197.8,118 181.5,124.8 184.3,97.8 186.4,100.1 
					193.4,109.4 				"/>
				<polygon fill-rule="evenodd" clip-rule="evenodd" fill="#75D0ED" points="202.4,141.7 181.5,124.8 197.8,118 199.4,122.8 
					201.8,133.3 				"/>
				<polygon fill-rule="evenodd" clip-rule="evenodd" fill="#47C6E2" points="197.8,165.8 181.5,159 202.4,141.7 201.5,152 
					198.8,161.1 				"/>
				<linearGradient id="SVGID_4_" gradientUnits="userSpaceOnUse" x1="139.8882" y1="203.9116" x2="139.8882" y2="79.4917">
					<stop  offset="0.5687" style="stop-color:#97D9F0"/>
					<stop  offset="0.7705" style="stop-color:#97D9F0"/>
				</linearGradient>
				<polyline fill-rule="evenodd" clip-rule="evenodd" fill="url(#SVGID_4_)" points="123.9,100.2 96.9,97 99.3,124.1 99.3,124 
					77.4,141.7 98.8,158.3 98.8,158.2 95.7,185.2 122.7,182.7 122.7,182.7 139.6,203.9 156.9,183 156.9,183 183.8,186 181.3,159 
					181.2,159 202.4,142 181.4,124.8 181.4,124.8 184.3,97.8 157.2,100.5 157.3,100.6 140.2,79.5 123,100.6 				"/>
				<polyline fill-rule="evenodd" clip-rule="evenodd" fill="#C2E7F3" points="99.7,124.4 157.2,100.5 157.4,100.5 181.2,159.1 
					181.3,159.2 122.5,182.6 122.3,182.7 99.7,124.4 				"/>
				<polyline fill-rule="evenodd" clip-rule="evenodd" fill="#C2E7F3" points="123.2,100.3 98.5,157.9 98.7,158 156.7,183.2 
					156.8,183.1 181.6,124.9 181.4,124.8 123.2,100.3 				"/>
				<polygon fill-rule="evenodd" clip-rule="evenodd" fill="#DCF1F8" points="140.8,107.5 116.1,117.8 106.4,140.6 116,165.3 
					140,175.8 164.4,166.1 174.6,142 164.7,117.6 				"/>
			</g>
		</g>
	</g>
	<path fill="#FFFFFF" d="M171.4,75.9h-7.6l2.7-2.6c0.4-0.4,0.4-1.1,0-1.5c-0.4-0.4-1.3-0.4-1.8,0l-2.5,2.3v-6.9c0-1-0.5-1.9-1.5-1.9
		s-1.5,0.8-1.5,1.9v7.4l-2.9-2.8c-0.4-0.4-1.2-0.4-1.6,0c-0.4,0.4-0.5,1,0,1.5l2.6,2.6h-7.2c-1,0-1.9,1-1.9,2s0.8,2,1.9,2h6.9
		l-2.4,2.3c-0.4,0.4-0.4,1.1,0,1.5c0.4,0.4,1.2,0.4,1.7,0l2.9-2.8v7.6c0,1,0.5,1.9,1.5,1.9s1.5-0.8,1.5-1.9v-7.2l2.5,2.3
		c0.4,0.4,1.2,0.4,1.7,0c0.4-0.4,0.5-1,0.1-1.5l-2.3-2.3h7.4c1,0,1.9-1,1.9-2S172.5,75.9,171.4,75.9z"/>
	<path fill="#FFFFFF" d="M237.4,148.9h-7.6l2.7-2.6c0.4-0.4,0.4-1.1,0-1.5c-0.4-0.4-1.3-0.4-1.8,0l-2.5,2.3v-6.9
		c0-1-0.5-1.9-1.5-1.9s-1.5,0.8-1.5,1.9v7.4l-2.9-2.8c-0.4-0.4-1.2-0.4-1.6,0c-0.4,0.4-0.5,1,0,1.5l2.6,2.6h-7.2c-1,0-1.9,1-1.9,2
		s0.8,2,1.9,2h6.9l-2.4,2.3c-0.4,0.4-0.4,1.1,0,1.5c0.4,0.4,1.2,0.4,1.7,0l2.9-2.8v7.6c0,1,0.5,1.9,1.5,1.9s1.5-0.8,1.5-1.9v-7.2
		l2.5,2.3c0.4,0.4,1.2,0.4,1.7,0c0.4-0.4,0.5-1,0.1-1.5l-2.3-2.3h7.4c1,0,1.9-1,1.9-2S238.5,148.9,237.4,148.9z"/>
	<path fill="#FFFFFF" d="M172.5,186.9H162l3.7-3.6c0.6-0.6,0.6-1.5,0-2.1c-0.6-0.6-1.6-0.6-2.2,0l-3.3,3.2V175
		c0-1.4-1.1-2.6-2.5-2.6c-1.4,0-2.5,1.1-2.5,2.6v10.2l-3.8-3.8c-0.6-0.6-1.5-0.6-2.1,0c-0.6,0.6-0.6,1.4,0,2l3.7,3.6H143
		c-1.4,0-2.6,1.6-2.6,3c0,1.4,1.1,3,2.6,3h9.5l-3.3,3c-0.6,0.6-0.6,1.4,0,2c0.6,0.6,1.5,0.5,2.1-0.1l3.8-3.9v10.5
		c0,1.4,1.1,2.6,2.5,2.6c1.4,0,2.5-1.1,2.5-2.6v-9.9l3.3,3.2c0.6,0.6,1.6,0.6,2.2,0c0.6-0.6,0.6-1.2,0-1.8l-3.3-3h10.2
		c1.4,0,2.6-1.6,2.6-3C175.1,188.5,173.9,186.9,172.5,186.9z"/>
</g>
</svg>
