<?xml version="1.0" encoding="utf-8"?>
<!-- Generator: Adobe Illustrator 18.0.0, SVG Export Plug-In . SVG Version: 6.00 Build 0)  -->
<!DOCTYPE svg PUBLIC "-//W3C//DTD SVG 1.1//EN" "http://www.w3.org/Graphics/SVG/1.1/DTD/svg11.dtd">
<svg version="1.1" id="Layer_1" xmlns="http://www.w3.org/2000/svg" xmlns:xlink="http://www.w3.org/1999/xlink" x="0px" y="0px"
	 viewBox="0 0 396 225" enable-background="new 0 0 396 225" xml:space="preserve">
<g>
	<g>
		<path fill="#E6E6E5" d="M389,11V6.4c0-4.2-3.3-6.4-7.5-6.4H9C4.8,0,0,2.2,0,6.4V11H389z"/>
		<path fill="#F58A81" d="M0,11v206.4c0,4.2,4.8,7.6,9,7.6h372.6c4.2,0,7.5-3.5,7.5-7.6V11H0z"/>
		<path fill="#F26C6E" d="M11.5,5.1c0,1.2-1,2.2-2.2,2.2c-1.2,0-2.2-1-2.2-2.2c0-1.2,1-2.2,2.2-2.2C10.5,2.9,11.5,3.9,11.5,5.1z"/>
		<path fill="#FEDB2B" d="M19.8,5.1c0,1.2-1,2.2-2.2,2.2c-1.2,0-2.2-1-2.2-2.2c0-1.2,1-2.2,2.2-2.2C18.8,2.9,19.8,3.9,19.8,5.1z"/>
		<path fill="#59BA47" d="M28.7,5.1c0,1.2-1,2.2-2.2,2.2c-1.2,0-2.2-1-2.2-2.2c0-1.2,1-2.2,2.2-2.2C27.7,2.9,28.7,3.9,28.7,5.1z"/>
	</g>
	<g>
		<path fill="#F3F3F3" d="M189,67.6c0,0-0.8-5.5-5.9-1.5c-5.1,4-19.3,20-31.3,23.2c0,0,1.2-4.8-2.2-3.4c0,0-5.2,19.8-15.3,24.8
			c-0.1,0.8-0.2,2.2-0.3,2.2h6.3c0.3,0,0.6,0.2,0.8,0.3c1.5-11.4,11.2-20.1,22.9-20.1c11.7,0,21.4,8.8,22.9,20.1
			c1.9-1.9,4.4-3.1,7.4-3.1c3.1,0,5.9,1.3,8.1,3.3c1.4-11.4,11.1-20.3,23-20.3c11.9,0,21.7,8.8,23,20.3c0.4-0.3,1-0.6,1.5-0.6h5.5
			c0,0,0-0.2-0.1-0.4c-11.1-8-22.8-25.3-22.8-25.3c-2.8,0.8,0,3.3,0,3.3c-12.2,1-26.3-16-26.3-16c-2.6,2.5,0,3.8,0,3.8
			c-3.4-0.8-6.1-3.6-8.2-6.6l-2.1,9.2h4.3l-9.5,13.4l2.6-8.6l-4-3.1l8.7-10.8c-3.2-4.5-5-10-5.8-12.5l0,0
			C192.2,59.4,193,65.4,189,67.6z"/>
		<circle fill="#F3F3F3" cx="164" cy="116.5" r="19.2"/>
		<path fill="#F3F3F3" d="M249.9,119c-0.5,0-1.1,0-1.5-0.2c-1.2,11.6-11.1,20.8-23,20.8c-11.9,0-21.7-8.9-23-20.5
			c-1.6-2.7-4.9-4.6-8.1-4.6c-3.4,0-6.3,2.3-7.5,5.1c-1.5,11.3-11.2,20-22.9,20c-11.8,0-21.6-9.1-23-20.6c-0.3,0.1-0.5-0.1-0.8-0.1
			h-6.5c0.2,34,27.4,45.5,61,45.5c33.6,0,60.8-11.5,61-45.5H249.9z"/>
		<circle fill="#F3F3F3" cx="225.4" cy="116.5" r="19.2"/>
		<path fill="#F3F3F3" d="M198,71.7l-0.1,0.2c0,0,0,0.1,0.1,0.1L198,71.7z"/>
	</g>
	<g>
		<linearGradient id="SVGID_1_" gradientUnits="userSpaceOnUse" x1="357.5" y1="226" x2="357.5" y2="72">
			<stop  offset="0" style="stop-color:#010101;stop-opacity:0.1263"/>
			<stop  offset="0.919" style="stop-color:#010101;stop-opacity:0"/>
		</linearGradient>
		<path fill="url(#SVGID_1_)" d="M391,84c0-6.6-5.4-12-12-12h-43c-6.6,0-12,5.4-12,12v130c0,6.6,5.4,12,12,12h43c6.6,0,12-5.4,12-12
			V84z"/>
		<path fill="#B7E4F8" d="M396,84c0-6.6-5.4-12-12-12h-43c-6.6,0-12,5.4-12,12v130c0,6.6,5.4,12,12,12h43c6.6,0,12-5.4,12-12V84z"/>
		<g>
			<linearGradient id="SVGID_2_" gradientUnits="userSpaceOnUse" x1="342.5" y1="218" x2="342.5" y2="83">
				<stop  offset="0.1064" style="stop-color:#ACDEF3;stop-opacity:0.2836"/>
				<stop  offset="0.18" style="stop-color:#9DD7F1;stop-opacity:0.3056"/>
				<stop  offset="0.3321" style="stop-color:#85CDEE;stop-opacity:0.351"/>
				<stop  offset="0.4994" style="stop-color:#73C6EC;stop-opacity:0.401"/>
				<stop  offset="0.692" style="stop-color:#68C2EA;stop-opacity:0.4585"/>
				<stop  offset="0.9669" style="stop-color:#64C1EA;stop-opacity:0.5406"/>
			</linearGradient>
			<path fill="url(#SVGID_2_)" d="M350,209.8c0,4.6-2.9,8.2-7,8.2h-0.5c-4.1,0-7.5-3.7-7.5-8.2V91.2c0-4.6,3.4-8.2,7.5-8.2h0.5
				c4.1,0,7,3.7,7,8.2V209.8z"/>
			<linearGradient id="SVGID_3_" gradientUnits="userSpaceOnUse" x1="362.5" y1="218" x2="362.5" y2="83">
				<stop  offset="0.1064" style="stop-color:#ACDEF3;stop-opacity:0.2836"/>
				<stop  offset="0.18" style="stop-color:#9DD7F1;stop-opacity:0.3056"/>
				<stop  offset="0.3321" style="stop-color:#85CDEE;stop-opacity:0.351"/>
				<stop  offset="0.4994" style="stop-color:#73C6EC;stop-opacity:0.401"/>
				<stop  offset="0.692" style="stop-color:#68C2EA;stop-opacity:0.4585"/>
				<stop  offset="0.9669" style="stop-color:#64C1EA;stop-opacity:0.5406"/>
			</linearGradient>
			<path fill="url(#SVGID_3_)" d="M370,209.8c0,4.6-3.1,8.2-7.2,8.2h-0.5c-4.1,0-7.4-3.7-7.4-8.2V91.2c0-4.6,3.3-8.2,7.4-8.2h0.5
				c4.1,0,7.2,3.7,7.2,8.2V209.8z"/>
			<linearGradient id="SVGID_4_" gradientUnits="userSpaceOnUse" x1="382.5" y1="218" x2="382.5" y2="83">
				<stop  offset="0.1064" style="stop-color:#ACDEF3;stop-opacity:0.2836"/>
				<stop  offset="0.18" style="stop-color:#9DD7F1;stop-opacity:0.3056"/>
				<stop  offset="0.3321" style="stop-color:#85CDEE;stop-opacity:0.351"/>
				<stop  offset="0.4994" style="stop-color:#73C6EC;stop-opacity:0.401"/>
				<stop  offset="0.692" style="stop-color:#68C2EA;stop-opacity:0.4585"/>
				<stop  offset="0.9669" style="stop-color:#64C1EA;stop-opacity:0.5406"/>
			</linearGradient>
			<path fill="url(#SVGID_4_)" d="M390,209.8c0,4.6-3.2,8.2-7.3,8.2h-0.5c-4.1,0-7.2-3.7-7.2-8.2V91.2c0-4.6,3.1-8.2,7.2-8.2h0.5
				c4.1,0,7.3,3.7,7.3,8.2V209.8z"/>
		</g>
		
			<linearGradient id="SVGID_5_" gradientUnits="userSpaceOnUse" x1="696.71" y1="76" x2="759.2851" y2="76" gradientTransform="matrix(-1 0 0 1 1088.1914 0)">
			<stop  offset="0" style="stop-color:#010101;stop-opacity:0.1263"/>
			<stop  offset="0.919" style="stop-color:#010101;stop-opacity:0"/>
		</linearGradient>
		<path fill="url(#SVGID_5_)" d="M391.5,76l-62.6,8c0,0,0-9.2,10-12l44.5-4L391.5,76z"/>
		<path fill="#EFC820" d="M377.1,34.6L377.1,34.6c-7.4-6.4-5.8-11.4-5.8-11.4c0-4.8-3.9-8.7-8.8-8.7c-0.1,0-0.3,0-0.4,0
			c-0.1,0-0.3,0-0.4,0c-4.8,0-8.8,3.9-8.8,8.8c0,0,1.1,5.2-6.3,11.6c-8.5,5.1-14.1,15.2-14.1,25.2c0,16,59.1,16,59.1,0
			C391.6,49,385.8,39.7,377.1,34.6z"/>
		<path fill="#FFFFFF" d="M396,73.1c0,1.6-1.3,2.9-2.9,2.9h-61.3c-1.6,0-2.9-1.3-2.9-2.9V61.9c0-1.6,1.3-2.9,2.9-2.9h61.3
			c1.6,0,2.9,1.3,2.9,2.9V73.1z"/>
		<g>
			<path fill="#F3F3F3" d="M337,72.6c0,0.8-0.6,1.4-1.4,1.4h-0.2c-0.8,0-1.4-0.6-1.4-1.4v-9.2c0-0.8,0.6-1.4,1.4-1.4h0.2
				c0.8,0,1.4,0.6,1.4,1.4V72.6z"/>
			<path fill="#F3F3F3" d="M345,72.6c0,0.8-0.6,1.4-1.4,1.4h-0.2c-0.8,0-1.4-0.6-1.4-1.4v-9.2c0-0.8,0.6-1.4,1.4-1.4h0.2
				c0.8,0,1.4,0.6,1.4,1.4V72.6z"/>
			<path fill="#F3F3F3" d="M352,72.6c0,0.8-0.6,1.4-1.4,1.4h-0.2c-0.8,0-1.4-0.6-1.4-1.4v-9.2c0-0.8,0.6-1.4,1.4-1.4h0.2
				c0.8,0,1.4,0.6,1.4,1.4V72.6z"/>
			<path fill="#F3F3F3" d="M360,72.6c0,0.8-0.6,1.4-1.4,1.4h-0.2c-0.8,0-1.4-0.6-1.4-1.4v-9.2c0-0.8,0.6-1.4,1.4-1.4h0.2
				c0.8,0,1.4,0.6,1.4,1.4V72.6z"/>
			<path fill="#F3F3F3" d="M367,72.6c0,0.8-0.6,1.4-1.4,1.4h-0.2c-0.8,0-1.4-0.6-1.4-1.4v-9.2c0-0.8,0.6-1.4,1.4-1.4h0.2
				c0.8,0,1.4,0.6,1.4,1.4V72.6z"/>
			<path fill="#F3F3F3" d="M375,72.6c0,0.8-0.6,1.4-1.4,1.4h-0.2c-0.8,0-1.4-0.6-1.4-1.4v-9.2c0-0.8,0.6-1.4,1.4-1.4h0.2
				c0.8,0,1.4,0.6,1.4,1.4V72.6z"/>
			<path fill="#F3F3F3" d="M382,72.6c0,0.8-0.6,1.4-1.4,1.4h-0.2c-0.8,0-1.4-0.6-1.4-1.4v-9.2c0-0.8,0.6-1.4,1.4-1.4h0.2
				c0.8,0,1.4,0.6,1.4,1.4V72.6z"/>
			<path fill="#F3F3F3" d="M390,72.6c0,0.8-0.6,1.4-1.4,1.4h-0.2c-0.8,0-1.4-0.6-1.4-1.4v-9.2c0-0.8,0.6-1.4,1.4-1.4h0.2
				c0.8,0,1.4,0.6,1.4,1.4V72.6z"/>
		</g>
	</g>
</g>
</svg>
