<?xml version="1.0" encoding="utf-8"?>
<!-- Generator: Adobe Illustrator 18.0.0, SVG Export Plug-In . SVG Version: 6.00 Build 0)  -->
<!DOCTYPE svg PUBLIC "-//W3C//DTD SVG 1.1//EN" "http://www.w3.org/Graphics/SVG/1.1/DTD/svg11.dtd">
<svg version="1.1" xmlns="http://www.w3.org/2000/svg" xmlns:xlink="http://www.w3.org/1999/xlink" x="0px" y="0px"
	 viewBox="0 0 280 373.9" enable-background="new 0 0 280 373.9" xml:space="preserve">
<g id="Layer_1">
	<g>
		<path opacity="0.1" d="M168,8H30.3c-16.6,0,70.5,76,70.5,92.6L0.1,333.8c0,16.6,13.5,34.4,30.2,34.4l218.2,5.6
			c16.6,0,30.1-13.5,30.1-30.1l-25.1-225.6L168,8z"/>
		<path fill="#2B2F38" d="M168,0H30.3C13.6,0,0,13.5,0,30.1v303.6C0,350.3,13.6,364,30.3,364h218.3c16.6,0,30.4-13.7,30.4-30.3
			V101.3L168,0z"/>
		<path fill="#323944" d="M197.8,100h80.6L168,0.2v71.2C168,88,181.2,100,197.8,100z"/>
		<path fill="#3B4554" d="M253,233.8c0,11.1-9,20.2-20.2,20.2H45.2C34,254,25,245,25,233.8v-32.6C25,190,34,181,45.2,181h187.6
			c11.1,0,20.2,9,20.2,20.2V233.8z"/>
		<g>
			<path fill="#FFFFFF" d="M71.2,235v-16.3H56V235h-9.4v-39.1H56v14.8h15.2v-14.8h9.4V235H71.2z"/>
			<path fill="#FFFFFF" d="M105.5,203.9v31H96v-31H85v-8.1h31.5v8.1H105.5z"/>
			<path fill="#FFFFFF" d="M156.3,235l0.2-27.7h-0.2L146.1,235h-6.6l-9.9-27.7h-0.2l0.2,27.7h-8.9v-39.1h13.4l8.9,25.1h0.2l8.5-25.1
				h13.6V235H156.3z"/>
			<path fill="#FFFFFF" d="M173.5,235v-39.1h9.5v30.9h15.1v8.2H173.5z"/>
			<path fill="#FFFFFF" d="M215.6,236c-7.1,0-13-3.8-14.9-9.9l8.4-2.6c0.8,2.7,3.3,4.7,6.3,4.7c3.1,0,5.9-1.9,5.9-5.7
				c0-4.6-4.2-6-8-6c-2.8,0-6.8,0.7-9.5,1.7l0.9-22.4h24v7.9h-15.7l-0.3,6.2c1.2-0.3,2.8-0.4,3.9-0.4c7.8,0,14.1,4.2,14.1,12.4
				C230.7,231.5,223.3,236,215.6,236z"/>
		</g>
	</g>
</g>
<g id="Layer_2" display="none">
	<g display="inline">
		<path opacity="0.1" d="M168,8H30.3c-16.6,0,70.5,76,70.5,92.6L0.1,333.8c0,16.6,13.5,34.4,30.2,34.4l218.2,5.6
			c16.6,0,30.1-13.5,30.1-30.1l-25.1-225.6L168,8z"/>
		<path fill="#2B2F38" d="M168,0H30.3C13.6,0,0,13.5,0,30.1v303.6C0,350.3,13.6,364,30.3,364h218.3c16.6,0,30.4-13.7,30.4-30.3
			V101.3L168,0z"/>
		<path fill="#323944" d="M197.8,100h80.6L168,0.2v71.2C168,88,181.2,100,197.8,100z"/>
		<path fill="#3B4554" d="M253,233.8c0,11.1-9,20.2-20.2,20.2H45.2C34,254,25,245,25,233.8v-32.6C25,190,34,181,45.2,181h187.6
			c11.1,0,20.2,9,20.2,20.2V233.8z"/>
		<g>
			<path fill="#FFFFFF" d="M92.4,237.4c-12.4,0-21.6-8.6-21.6-21.2c0-12.9,9.5-21.1,21.8-21.1c5.6,0,11.7,2,15,5.9l-6.6,6.6
				c-1.8-2.5-5.1-3.7-8.1-3.7c-6.8,0-11.6,5.2-11.6,12.3c0,7.3,4.7,12.3,11.4,12.3c3.8,0,6.8-1.7,8.5-4.1l6.8,6.4
				C104.5,234.8,99.1,237.4,92.4,237.4z"/>
			<path fill="#FFFFFF" d="M133.3,206.6c-1.6-2.1-4.7-3.5-7.2-3.5c-2.5,0-5.6,0.9-5.6,4c0,2.7,2.4,3.5,6.2,4.7
				c5.4,1.8,12.5,4.1,12.5,12.1c0,9.2-7.4,13.4-15.4,13.4c-5.7,0-11.5-2.1-15-5.8l6.4-6.5c1.9,2.4,5.5,4.3,8.7,4.3
				c3,0,5.6-1.1,5.6-4.4c0-3.1-3.1-4-8.3-5.7c-5.1-1.6-10.3-4.3-10.3-11.5c0-8.9,8.1-12.6,15.5-12.6c4.5,0,9.6,1.7,13.2,4.9
				L133.3,206.6z"/>
			<path fill="#FFFFFF" d="M166.8,206.6c-1.6-2.1-4.7-3.5-7.1-3.5c-2.5,0-5.6,0.9-5.6,4c0,2.7,2.4,3.5,6.2,4.7
				c5.4,1.8,12.5,4.1,12.5,12.1c0,9.2-7.4,13.4-15.4,13.4c-5.7,0-11.5-2.1-15-5.8l6.4-6.5c1.9,2.4,5.5,4.3,8.7,4.3
				c2.9,0,5.6-1.1,5.6-4.4c0-3.1-3.1-4-8.3-5.7c-5.1-1.6-10.3-4.3-10.3-11.5c0-8.9,8.1-12.6,15.5-12.6c4.5,0,9.6,1.7,13.2,4.9
				L166.8,206.6z"/>
			<path fill="#FFFFFF" d="M192.9,237.4c-7.3,0-14-3.2-16.1-10.7l8.8-2.3c0.7,2.7,3.2,5,6.8,5c2.7,0,5.8-1.4,5.8-5.1
				c0-4.1-4.2-5.3-8.2-5.3h-2.6v-7h2.8c3.6,0,7-0.9,7-4.8c0-2.9-2.4-4.4-5.1-4.4c-2.7,0-4.9,1.8-5.5,4.5l-8.8-2
				c1.9-6.8,8.3-10.2,15-10.2c7.1,0,14.1,3.6,14.1,11.3c0,4.4-2.8,7.7-6.7,8.7v0.2c4.5,1.1,7.7,4.8,7.7,9.3
				C208.1,233.4,200.3,237.4,192.9,237.4z"/>
		</g>
	</g>
</g>
<g id="Layer_3" display="none">
	<g display="inline">
		<path opacity="0.1" d="M168,8H30.3c-16.6,0,70.5,76,70.5,92.6L0.1,333.8c0,16.6,13.5,34.4,30.2,34.4l218.2,5.6
			c16.6,0,30.1-13.5,30.1-30.1l-25.1-225.6L168,8z"/>
		<path fill="#2B2F38" d="M248.6,0H168h-57.1H30.3C13.6,0,0,13.5,0,30.1v71.2v232.4C0,350.3,13.6,364,30.3,364h218.3
			c16.6,0,30.4-13.7,30.4-30.3V101.3V30.1C279,13.5,265.2,0,248.6,0z"/>
		<rect x="13" y="43" fill="#323944" width="250" height="281"/>
		<circle fill="#323944" cx="138.8" cy="341.9" r="10"/>
		<circle fill="#323944" cx="138.8" cy="20.7" r="5"/>
	</g>
</g>
</svg>
