<?xml version="1.0" encoding="utf-8"?>
<!-- Generator: Adobe Illustrator 18.0.0, SVG Export Plug-In . SVG Version: 6.00 Build 0)  -->
<!DOCTYPE svg PUBLIC "-//W3C//DTD SVG 1.1//EN" "http://www.w3.org/Graphics/SVG/1.1/DTD/svg11.dtd">
<svg version="1.1" xmlns="http://www.w3.org/2000/svg" xmlns:xlink="http://www.w3.org/1999/xlink" x="0px" y="0px"
	 viewBox="0 0 280 300" enable-background="new 0 0 280 300" xml:space="preserve">
<g id="Layer_1">
	<g>
		<path opacity="5.000000e-02" d="M279.5,287.6c0,6.9-5.6,12.4-12.4,12.4H12.9c-6.9,0-12.4-5.6-12.4-12.4V33.4
			C0.5,26.6,6.1,21,12.9,21h254.1c6.9,0,12.4,5.6,12.4,12.4V287.6z"/>
		<path fill="#DB05CC" d="M279.5,276.6c0,6.9-5.6,12.4-12.4,12.4H12.9c-6.9,0-12.4-5.6-12.4-12.4V22.4C0.5,15.6,6.1,10,12.9,10
			h254.1c6.9,0,12.4,5.6,12.4,12.4V276.6z"/>
		<path fill="#FF7FEA" d="M279.5,266.6c0,6.9-5.6,12.4-12.4,12.4H12.9c-6.9,0-12.4-5.6-12.4-12.4V12.4C0.5,5.6,6.1,0,12.9,0h254.1
			c6.9,0,12.4,5.6,12.4,12.4V266.6z"/>
		<rect x="16.5" y="16" fill="#960485" width="247" height="245"/>
		<g>
			<path fill="#FF7FEA" d="M99,78.8v122.9H71.1V78.8H99z"/>
			<path fill="#FF7FEA" d="M208,72.2v102.8c0,10,0.4,20.6,0.7,26.6h-24.6l-1.3-13.1h-0.4c-5.7,10-16.4,15.1-27.9,15.1
				c-21.1,0-38.1-18-38.1-45.8c-0.2-30.1,18.6-47.4,39.9-47.4c10.9,0,19.5,3.8,23.5,10h0.4V72.2H208z M180.3,150.3
				c0-1.5-0.2-3.5-0.4-4.9c-1.6-7.5-7.7-13.7-16.2-13.7c-12.6,0-19.1,11.3-19.1,25.3c0,15.1,7.5,24.6,19,24.6c8,0,14.4-5.5,16-13.3
				c0.5-2,0.7-4,0.7-6.4V150.3z"/>
		</g>
	</g>
</g>
<g id="Layer_3" display="none">
	<g display="inline">
		<path opacity="5.000000e-02" d="M279.5,287.6c0,6.9-5.6,12.4-12.4,12.4H12.9c-6.9,0-12.4-5.6-12.4-12.4V33.4
			C0.5,26.6,6.1,21,12.9,21h254.1c6.9,0,12.4,5.6,12.4,12.4V287.6z"/>
		<path fill="#EFC71B" d="M279.5,276.6c0,6.9-5.6,12.4-12.4,12.4H12.9c-6.9,0-12.4-5.6-12.4-12.4V22.4C0.5,15.6,6.1,10,12.9,10
			h254.1c6.9,0,12.4,5.6,12.4,12.4V276.6z"/>
		<path fill="#FFD62A" d="M279.5,266.6c0,6.9-5.6,12.4-12.4,12.4H12.9c-6.9,0-12.4-5.6-12.4-12.4V12.4C0.5,5.6,6.1,0,12.9,0h254.1
			c6.9,0,12.4,5.6,12.4,12.4V266.6z"/>
		<rect x="16.5" y="16" fill="#7F5500" width="247" height="247"/>
		<g>
			<path fill="#FFD62A" d="M99.3,170.8l-8.7,31.5H61.8L99.3,79.5h36.5l38.1,122.9H144l-9.5-31.5H99.3z M130.5,150.1l-7.7-26.1
				c-2.2-7.3-4.4-16.4-6.2-23.7h-0.4c-1.8,7.3-3.6,16.6-5.7,23.7l-7.3,26.1H130.5z"/>
			<path fill="#FFD62A" d="M216.9,88.4c0,7.7-5.8,13.9-14.9,13.9c-8.8,0-14.6-6.2-14.4-13.9c-0.2-8,5.7-14,14.6-14
				C211.1,74.4,216.7,80.4,216.9,88.4z M188.3,202.4v-89.2H216v89.2H188.3z"/>
		</g>
	</g>
</g>
<g id="Layer_2" display="none">
	<g display="inline">
		<path opacity="5.000000e-02" d="M279.5,287.6c0,6.9-5.6,12.4-12.4,12.4H12.9c-6.9,0-12.4-5.6-12.4-12.4V33.4
			C0.5,26.6,6.1,21,12.9,21h254.1c6.9,0,12.4,5.6,12.4,12.4V287.6z"/>
		<path fill="#00BFF2" d="M279.5,276.6c0,6.9-5.6,12.4-12.4,12.4H12.9c-6.9,0-12.4-5.6-12.4-12.4V22.4C0.5,15.6,6.1,10,12.9,10
			h254.1c6.9,0,12.4,5.6,12.4,12.4V276.6z"/>
		<path fill="#7FDDFF" d="M279.5,266.6c0,6.9-5.6,12.4-12.4,12.4H12.9c-6.9,0-12.4-5.6-12.4-12.4V12.4C0.5,5.6,6.1,0,12.9,0h254.1
			c6.9,0,12.4,5.6,12.4,12.4V266.6z"/>
		<rect x="16.5" y="16" fill="#004C72" width="247" height="247"/>
		<g>
			<path fill="#7FDDFF" d="M57,79.5c8.6-1.5,20.6-2.6,37.6-2.6c17.1,0,29.4,3.3,37.6,9.8c7.8,6.2,13.1,16.4,13.1,28.4
				c0,12-4,22.2-11.3,29.2c-9.5,8.9-23.5,12.9-39.9,12.9c-3.6,0-6.9-0.2-9.5-0.5v43.9H57V79.5z M84.5,135.3c2.4,0.5,5.3,0.7,9.3,0.7
				c14.8,0,23.9-7.5,23.9-20.1c0-11.3-7.8-18-21.7-18c-5.7,0-9.5,0.5-11.5,1.1V135.3z"/>
			<path fill="#7FDDFF" d="M158,176.5c5.1,3.1,15.7,6.7,23.9,6.7c8.4,0,11.9-2.9,11.9-7.5c0-4.6-2.7-6.7-13.1-10.2
				c-18.4-6.2-25.5-16.2-25.3-26.8c0-16.6,14.2-29.2,36.3-29.2c10.4,0,19.7,2.4,25.2,5.1l-4.9,19.1c-4-2.2-11.7-5.1-19.3-5.1
				c-6.7,0-10.6,2.7-10.6,7.3c0,4.2,3.5,6.4,14.4,10.2c17,5.8,24.1,14.4,24.2,27.5c0,16.6-13.1,28.8-38.7,28.8
				c-11.7,0-22.1-2.6-28.8-6.2L158,176.5z"/>
		</g>
	</g>
</g>
</svg>
