<?xml version="1.0" encoding="utf-8"?>
<!-- Generator: Adobe Illustrator 18.0.0, SVG Export Plug-In . SVG Version: 6.00 Build 0)  -->
<!DOCTYPE svg PUBLIC "-//W3C//DTD SVG 1.1//EN" "http://www.w3.org/Graphics/SVG/1.1/DTD/svg11.dtd">
<svg version="1.1" id="Layer_1" xmlns="http://www.w3.org/2000/svg" xmlns:xlink="http://www.w3.org/1999/xlink" x="0px" y="0px"
	 viewBox="0 0 392.1 224.3" enable-background="new 0 0 392.1 224.3" xml:space="preserve">
<g>
	<path fill="#1A1D23" d="M366.1,212c0,8.4,0,8.4-8.4,8.4H34.5c-8.4,0-8.4,0-8.4-8.4V8.4C26,3.8,29.8,0,34.5,0h323.1
		c4.7,0,8.4,3.8,8.4,8.4V212z"/>
	<rect x="35.4" y="10.3" fill="#F58A81" width="322" height="194"/>
	<path fill="#D3D3D3" d="M0,213.3c1.2,6,5.5,11,10.6,11h371c5.1,0,9.4-5,10.6-11H0z"/>
	<path opacity="0.4" fill="#F15832" d="M305.3,39.3H86.5c-2.4,0-5.1,1.7-5.1,4.1v2.4v121.5c0,2.4,2.7,3.9,5.1,3.9h218.8
		c2.4,0,5-1.5,5-3.9V45.8v-2.4C310.4,41,307.8,39.3,305.3,39.3z"/>
	<g>
		<path fill="#F3F3F3" d="M310.4,44.3v-2.7c0-2.4-2.6-3.3-5-3.3H86.5c-2.4,0-5.1,0.9-5.1,3.3v2.7H310.4z"/>
		<path fill="#B7E4F8" d="M81.4,44.3v121.2c0,2.4,2.7,3.8,5.1,3.8h218.8c2.4,0,5-1.3,5-3.8V44.3H81.4z"/>
		<circle fill="#F26C6E" cx="86.7" cy="40.9" r="1.3"/>
		<circle fill="#FEDB2B" cx="91.5" cy="40.9" r="1.3"/>
		<circle fill="#59BA47" cx="96.7" cy="40.9" r="1.3"/>
	</g>
	<path opacity="0.4" fill="#F15832" d="M257.2,190.3H134.6c-0.6,0-1.2,0.1-1.2,0.7v13.3h125V191
		C258.4,190.4,257.8,190.3,257.2,190.3z"/>
	<rect x="91.4" y="102.3" opacity="0.3" fill="#95D8EB" width="106" height="47"/>
	<rect x="201.4" y="102.3" opacity="0.3" fill="#95D8EB" width="98" height="47"/>
	<rect x="91.4" y="152.3" opacity="0.3" fill="#95D8EB" width="71" height="17"/>
	<rect x="165.4" y="152.3" opacity="0.3" fill="#95D8EB" width="71" height="17"/>
	<rect x="240.4" y="152.3" opacity="0.3" fill="#95D8EB" width="59" height="17"/>
	<rect x="91.4" y="51.3" opacity="0.3" fill="#95D8EB" width="208" height="48"/>
	<g>
		<linearGradient id="SVGID_1_" gradientUnits="userSpaceOnUse" x1="366.3682" y1="218.7988" x2="303.3682" y2="218.7988">
			<stop  offset="0" style="stop-color:#010101;stop-opacity:0"/>
			<stop  offset="0.3685" style="stop-color:#010101;stop-opacity:0.8"/>
		</linearGradient>
		<path fill="url(#SVGID_1_)" d="M366.4,216v-2.7h-63v2.7c0,4.2,3.4,8.3,7.4,8.3H359C363,224.3,366.4,220.2,366.4,216z"/>
		<g>
			<path fill="#F15844" d="M362.7,149.1c-10.2,0-18.5,8.3-18.5,18.5s8.3,37.4,18.5,37.4s18.5-27.2,18.5-37.4
				S372.9,149.1,362.7,149.1z M362.7,195.3c-5.9,0-10.7-21.9-10.7-27.8s4.8-10.7,10.7-10.7c5.9,0,10.7,4.8,10.7,10.7
				S368.7,195.3,362.7,195.3z"/>
			<g>
				<linearGradient id="SVGID_2_" gradientUnits="userSpaceOnUse" x1="331.2452" y1="132.2117" x2="331.2452" y2="92.9483">
					<stop  offset="3.532530e-02" style="stop-color:#FFFFFF;stop-opacity:0"/>
					<stop  offset="1" style="stop-color:#FFFFFF;stop-opacity:0.7192"/>
				</linearGradient>
				<path fill="url(#SVGID_2_)" d="M332.9,116.9L332.9,116.9c-2.2-2.2-2.1-5.8,0.1-8c0,0,0.1,0,0.1-0.1c0,0,0,0,0,0
					c4-4,4-10.8,0.1-14.9c-0.4-0.6-1.1-1-1.9-1c-1.3,0-2.4,1.1-2.4,2.4c0,0.7,0.3,1.4,0.9,1.9c2.1,2.2,2,5.7-0.1,7.9
					c0,0-0.1,0-0.1,0.1l0,0c0,0,0,0,0,0c-4,4-4,10.6-0.2,14.8l0,0c2.2,2.2,2.1,5.9-0.1,8.1c0,0-0.1,0-0.1,0.1l0,0
					c-0.4,0.4-0.7,1-0.7,1.7c0,1.3,1.1,2.4,2.4,2.4c0.8,0,1.5-0.4,2-1C336.5,127.2,336.6,120.9,332.9,116.9z"/>
				<linearGradient id="SVGID_3_" gradientUnits="userSpaceOnUse" x1="344.0058" y1="132.2117" x2="344.0058" y2="92.9483">
					<stop  offset="3.532530e-02" style="stop-color:#FFFFFF;stop-opacity:0"/>
					<stop  offset="1" style="stop-color:#FFFFFF;stop-opacity:0.7192"/>
				</linearGradient>
				<path fill="url(#SVGID_3_)" d="M345.7,116.9L345.7,116.9c-2.2-2.2-2.1-5.8,0.1-8c0,0,0.1,0,0.1-0.1c0,0,0,0,0,0
					c4-4,4-10.8,0.1-14.9c-0.4-0.6-1.1-1-1.9-1c-1.3,0-2.4,1.1-2.4,2.4c0,0.7,0.3,1.4,0.9,1.9c2.1,2.2,2,5.7-0.1,7.9
					c0,0-0.1,0-0.1,0.1l0,0c0,0,0,0,0,0c-4,4-4,10.6-0.2,14.8l0,0c2.2,2.2,2.1,5.9-0.1,8.1c0,0-0.1,0-0.1,0.1l0,0
					c-0.4,0.4-0.7,1-0.7,1.7c0,1.3,1.1,2.4,2.4,2.4c0.8,0,1.5-0.4,2-1C349.2,127.2,349.3,120.9,345.7,116.9z"/>
				<linearGradient id="SVGID_4_" gradientUnits="userSpaceOnUse" x1="318.4847" y1="132.2117" x2="318.4847" y2="92.9483">
					<stop  offset="3.532530e-02" style="stop-color:#FFFFFF;stop-opacity:0"/>
					<stop  offset="1" style="stop-color:#FFFFFF;stop-opacity:0.7192"/>
				</linearGradient>
				<path fill="url(#SVGID_4_)" d="M320.1,116.9L320.1,116.9c-2.2-2.2-2.1-5.8,0.1-8c0,0,0.1,0,0.1-0.1c0,0,0,0,0,0
					c4-4,4-10.8,0.1-14.9c-0.4-0.6-1.1-1-1.9-1c-1.3,0-2.4,1.1-2.4,2.4c0,0.7,0.3,1.4,0.9,1.9c2.1,2.2,2,5.7-0.1,7.9
					c0,0-0.1,0-0.1,0.1l0,0c0,0,0,0,0,0c-4,4-4,10.6-0.2,14.8l0,0c2.2,2.2,2.1,5.9-0.1,8.1c0,0-0.1,0-0.1,0.1l0,0
					c-0.4,0.4-0.7,1-0.7,1.7c0,1.3,1.1,2.4,2.4,2.4c0.8,0,1.5-0.4,2-1C323.7,127.2,323.8,120.9,320.1,116.9z"/>
			</g>
			<path fill="#F2665B" d="M363.4,216c0,4.2-4,8.3-8,8.3h-48.2c-4.1,0-6.8-4.1-6.8-8.3v-69.6c0-4.2,2.7-8.1,6.8-8.1h48.2
				c4.1,0,8,3.9,8,8.1V216z"/>
			<linearGradient id="SVGID_5_" gradientUnits="userSpaceOnUse" x1="314.3682" y1="217.2016" x2="314.3682" y2="138.2988">
				<stop  offset="0" style="stop-color:#FFFFFF;stop-opacity:0"/>
				<stop  offset="1" style="stop-color:#FFFFFF;stop-opacity:0.3032"/>
			</linearGradient>
			<path fill="url(#SVGID_5_)" d="M314.4,217.2c4,0,7-3.3,7-7.3v-71.6h-14v71.6C307.4,213.9,310.3,217.2,314.4,217.2z"/>
			<linearGradient id="SVGID_6_" gradientUnits="userSpaceOnUse" x1="363.0713" y1="177.0161" x2="381.5539" y2="177.0161">
				<stop  offset="0" style="stop-color:#010101;stop-opacity:0.3242"/>
				<stop  offset="0.5833" style="stop-color:#010101;stop-opacity:0"/>
			</linearGradient>
			<path fill="url(#SVGID_6_)" d="M363.1,149.1c0,0,0.3,0,0.3,0v7.7c0,0-0.3,0-0.3,0c5.9,0,10.6,4.8,10.6,10.7s-4.6,27.8-10.5,27.8
				c0,0,0.2,0,0.2,0v9.6c0,0-0.3,0-0.3,0c10.2,0,18.5-27.2,18.5-37.4S373.3,149.1,363.1,149.1z"/>
		</g>
	</g>
</g>
</svg>
