<?xml version="1.0" encoding="utf-8"?>
<!-- Generator: Adobe Illustrator 18.0.0, SVG Export Plug-In . SVG Version: 6.00 Build 0)  -->
<!DOCTYPE svg PUBLIC "-//W3C//DTD SVG 1.1//EN" "http://www.w3.org/Graphics/SVG/1.1/DTD/svg11.dtd">
<svg version="1.1" id="Layer_2" xmlns="http://www.w3.org/2000/svg" xmlns:xlink="http://www.w3.org/1999/xlink" x="0px" y="0px"
	 viewBox="0 0 771.8 722.3" enable-background="new 0 0 771.8 722.3" xml:space="preserve">
<g>
	<path opacity="5.000000e-02" d="M663.2,433.3c-1.4,0.9-2.8,2-4.3,3.1c0.6-12.3,0.6-24.8-0.2-37.6c9.6-53.3-12.2-152.1-32.5-192.9
		c6-3.4,11.8-7.3,17.4-11.7c0-10.6-47.1-56-81.1-59.1c0.1-0.4,0.1-0.8,0.2-1.2c4.7-2.6,8.1-9.9,8.1-17.2
		c-106.3-104.1-225.6-103-267.7-72c0-9.2-4.9-16.6-10.9-16.6c-73.4,0-132.9,63.8-132.9,142.6c-27-24.1-47.4,23.5-9,27.5
		c-30.8,10.9-55,137.6-38.3,211.6c-0.2,8.4-0.1,16.7,0.3,24.8c-0.6-0.5-1.3-0.9-1.9-1.4c-63.9-44-141.8,51.7-93.6,116.2
		c11.6,12.4,31.9,20.1,53.8,24.5c0.1,0,0.2,0,0.3,0.1c0.2,0,0.5,0.1,0.7,0.1c31.6,6.9,67.4,6.1,82.1,2.4l0.1-0.4
		c51.9,89.8,144.2,146,231.8,146c88.1,0,181.1-56.9,232.8-147.6l0.4,1.3c0.1,0,0.2,0.1,0.3,0.1l0.2,0.6c14.2,3.6,47.8,4.4,78.4-1.7
		c23.8-4.2,46.5-12.1,59-25.5C805,485,727.1,389.3,663.2,433.3z"/>
	<g>
		<g>
			<path fill="#FFCAB3" d="M618.9,549.9l-22.3-69.5l1-0.6c21.5-33.3,48.3-60.6,65.6-72.5c63.9-44,141.8,51.7,93.6,116.2
				C727.9,554.4,644.2,556.3,618.9,549.9"/>
			<path fill="#FCC2AE" d="M619.5,550.6l-21-65.4l0.9-0.6c20.3-31.4,45.5-57.1,61.8-68.3c60.2-41.4,133.5,48.7,88.2,109.4
				C722.1,554.9,643.3,556.6,619.5,550.6"/>
			<path fill="#F9B5A2" d="M730.9,463.9c-35.4-62.6-83.1-39.6-95,17.1c29.9-20,55,27.3,23.4,41.1C699.8,543.1,754,529.8,730.9,463.9
				z"/>
			<path fill="#FFCAB3" d="M154.8,549.9l22.3-69.5l-1-0.6c-21.5-33.3-48.3-60.6-65.6-72.5c-63.9-44-141.8,51.7-93.6,116.2
				C45.8,554.4,129.5,556.3,154.8,549.9"/>
			<path fill="#FCC2AE" d="M153.7,550.6l21-65.4l-0.9-0.6c-20.3-31.4-45.5-57.1-61.7-68.3C51.9,374.9-21.4,465,23.9,525.7
				C51.1,554.9,129.9,556.6,153.7,550.6"/>
			<path fill="#F9B5A2" d="M42.8,463.9c35.4-62.6,83.1-39.6,95,17.1c-29.9-20-55,27.3-23.4,41.1C73.9,543.1,19.7,529.8,42.8,463.9z"
				/>
		</g>
		<path fill="#42210B" d="M652.7,326.1c41.8,210.6-119.5,370.2-267,370.2c-147.5,0-308.4-159.3-267.2-370.2
			C159.3,117,232.5,61.9,380.1,61.9C527.6,61.9,610.6,114,652.7,326.1z"/>
		<path fill="#FCC1AC" d="M637.3,310.9c39.4,198.5-112.6,348.8-251.7,348.8c-139,0-290.6-150.1-251.8-348.8
			c38.5-197,107.5-249,246.5-249C519.4,61.9,597.7,111,637.3,310.9z"/>
		<path fill="#FFCAB3" d="M629,302.6c38.1,191.9-108.9,337.2-243.3,337.2S104.8,494.7,142.3,302.6
			C179.4,112.1,246.2,61.9,380.6,61.9C514.9,61.9,590.6,109.4,629,302.6z"/>
		<path fill="#F9B5A2" d="M345.3,421.1c19.8-20.7,51.3-33.1,85-2.2C417.7,377.3,364.5,377.3,345.3,421.1z"/>
		<path fill="#FCC1AC" d="M616.1,190.2c5.8-3.3-18.7-25.6-13.4-29.8c0-10.6-18.3-38.2-51.1-38.2c6.3,0,11.3-8.7,11.3-17.5
			C461.1,5.1,346.8,6.1,306.4,35.8c0-8.8-4.7-15.9-10.4-15.9c-70.4,0-127.3,61.1-127.3,136.6c-25.9-23.1,18.9-4.9-8.6,26.3
			c-36.8,13-63.8,198.2-17.3,243.5c25.9-40.5-10.6-102.7,19.6-113.7c13.7,0,29.2-19.2,29.2-32.9c-24.7,0-41.7-20-27.1-35
			c13,27.3,40.5,25.2,52.2,4.2c-32.4-21.1-20.6-54.1-20.6-54.1c10.9,20.2,122.1,51.3,241.7,18.5c-9.3-24.7-56.9-30.1-56.9-30.1
			c9.7,0,109.6,41.5,193.5,22.7c2.2,7.6,3.6,13.3,2.9,13.8c0.8,11.5-1.7,30-22.5,43.6c11.7,20.9,39.2,23,52.2-4.2
			c14.6,15,20,79-15.5,71c0,13.7,13,33.5,26.6,33.5c30.2,11-7.2,44.4-7.2,44.4C676.5,425.3,644.7,247.7,616.1,190.2z"/>
		<path fill="#42210B" d="M626.3,179.9c6-3.4,11.8-7.3,17.4-11.7c0-11-50.5-59.2-84.7-59.2c6.5,0,11.8-9.1,11.8-18.3
			c-106.3-104.1-225.6-103-267.7-72c0-9.2-4.9-16.6-10.9-16.6c-73.4,0-132.9,63.8-132.9,142.6c-27-24.1-47.4,23.5-9,27.5
			c-38.4,13.6-66.5,206.9-18,254.2c27-42.3-11.1-107.2,20.5-118.7c14.3,0,30.5-20.1,30.5-34.3c-25.8,0-43.5-20.8-28.3-36.5
			c13.6,28.5,42.3,26.3,54.5,4.4c-33.8-22-21.5-56.5-21.5-56.5c11.3,21,108.3,56.5,233.1,22.1c-9.8-25.8-40.2-34.3-40.2-34.3
			c10.2,0,114.4,43.4,202,23.7c2.3,7.9,3.8,13.9,3,14.4c0.9,12-1.8,31.3-23.5,45.5c12.2,21.8,40.9,24,54.5-4.4
			c15.3,15.7,20.8,82.5-16.2,74.1c0,14.3,13.5,35,27.8,35c31.6,11.4-7.6,46.3-7.6,46.3C689.3,425.3,656.1,239.8,626.3,179.9z"/>
		<path fill="#FCC1AC" d="M489.4,492.3c-18.5-27.6-63.7-34.3-98.6-15.3h-0.6c-35-19-80.2-12.3-98.6,15.3
			c-9.7,20.6-25.8,101.8-20.9,135l0.5-0.2c0,0,126.3,101.5,239.1,0l0.1,0.2C515.2,594.1,499.1,512.9,489.4,492.3z M454.4,643.4
			c-28.7,0-53.5-22.3-53.5-55.7l0,0.8c0-7.8-22.8-8.3-22.3-0.7c0,33.4-23.2,60.4-52,60.4c-20.4-56.4-29.7-103.9-22.9-133.2
			c18.5-27.6,51.5-34,86.5-15h0.6c35-19,68-12.7,86.5,15C484.1,544.2,474.8,587,454.4,643.4z"/>
		<path fill="#42210B" d="M495.5,487.4c-19.6-29.3-67.6-37.4-104.7-16.4h-0.6c-37.1-21-85.1-12.9-104.7,16.4
			c-10.3,21.8-27.3,108.1-22.2,143.4l0.5-0.2c0,0,134.1,107.8,253.8,0l0.1,0.2C522.8,595.5,505.8,509.2,495.5,487.4z M458.3,647.9
			c-30.5,0-56.8-23.7-56.8-59.2l0,0.8c0-8.3-24.2-8.8-23.7-0.8c0,35.5-24.7,64.1-55.2,64.1c-21.7-59.9-31.5-110.6-24.3-141.7
			c19.6-29.3,54.7-34.2,91.8-16.2h0.6c37.1-18,72.2-13.1,91.8,16.2C489.8,542.3,480,588.1,458.3,647.9z"/>
		<g>
			<path fill="#F9B5A2" d="M473.5,503.5c-66.4,12.1-75.2,11.1-171,15.6C328,603,445.5,602.7,473.5,503.5z"/>
			<g>
				<defs>
					<path id="SVGID_1_" d="M473.5,503.5c-67.3,4.4-75.7,4.9-171,15.6C333.4,601.2,440.6,594.3,473.5,503.5z"/>
				</defs>
				<clipPath id="SVGID_2_">
					<use xlink:href="#SVGID_1_"  overflow="visible"/>
				</clipPath>
				<path clip-path="url(#SVGID_2_)" fill="#BC8075" d="M518.3,490.5c-97.3,6.3-109.4,7.1-247.2,22.5
					C315.8,631.8,470.8,621.7,518.3,490.5z"/>
				<path clip-path="url(#SVGID_2_)" fill="#FFFFFF" d="M426,466.7l0.7,9.9l-21.1,1.1l1.2,17.4l-19.4,1.6l-19.4,1l-0.8-13.5
					l-21.1,1.7l-0.6-9.9l-32,2.6l3.7,36.9c0.6,8.4,7.8,14.8,16.3,14.3c2.3-0.1,4.4-0.8,6.3-1.8c2.3,6.2,8.4,10.5,15.4,10
					c1.7-0.1,3.2-0.5,4.7-1.1c1.6,7.8,14,6.8,22,6.3c13-0.8,7.3-7,7.8-12.3c1.2,5.2-3.4,12,7.2,11.3c8.4-0.6,23.7-2,23.1-10.4
					l-0.2-2.6c1.5,0.4,3.1,0.5,4.7,0.4c6.9-0.5,12.5-5.5,13.9-11.9c2,0.8,4.2,1.1,6.5,1c8.4-0.5,14.8-7.8,14.3-16.3l-1.1-37
					L426,466.7z"/>
				<path clip-path="url(#SVGID_2_)" fill="#FFA4C2" d="M439.4,503c-3.3,0.2-5.8,4.3-5.5,8.4c-16.3-8.8-18.8,0.4-17.8,7.2l0,0
					c-5.6-17.4-28.3-5.6-27.7,3.8l0,0c-2.5-17.5-30.6-10.7-28.3,3.7c-0.4-5.9-8.1-14.8-18.3-9.6c-0.3-4.1-2.6-7.5-7.3-7.1l0,0.7
					c-0.3-4.7,104.1-6.8,104.1-6.8"/>
				<path clip-path="url(#SVGID_2_)" fill="#FF94B3" d="M439.5,575c1.5,22.9-20,43-47.9,44.8c-27.9,1.8-51.8-15.3-53.3-38.2
					c-1.5-22.9,21.7-16.9,48.9-23.4C414.4,551.6,438.1,552.1,439.5,575z"/>
			</g>
		</g>
		<path opacity="0.4" fill="#4C280F" d="M589.6,156.1c-1.2-14.1-88.3-58.1-110.2-56c4.2-0.4,21.8-21.9,21.3-27.8
			C426.9,12.1,293.3,29.7,268,52.1c-0.5-5.9-3.3-16.3-7.1-15.9c-27.2,2.6-50.9,24.5-64.7,47.3c-0.5,1.2-30.2,69,11.2,85.7
			c17,11.8,90.4,45.2,160.9,18.5c-7.7-15.9-15-33.6-15-33.6C375.1,161.4,553.7,201.9,589.6,156.1z"/>
		<g>
			<path fill="#42210B" d="M513.5,324.1c14.2,17,50.3-2.6,87,30.4C584.9,322.1,546,308.5,513.5,324.1z"/>
			<path fill="#42210B" d="M244,324.1c-14.2,17-50.3-2.6-87,30.4C172.6,322.1,211.5,308.5,244,324.1z"/>
		</g>
		<g>
			<path fill="#231206" d="M224.2,387.3c0,12.7-9.9,22.9-22.1,22.9c-12.2,0-22.1-10.3-22.1-22.9c0-12.7,9.9-22.9,22.1-22.9
				C214.3,364.4,224.2,374.6,224.2,387.3z"/>
			<ellipse fill="#231206" cx="560.5" cy="387.3" rx="22.1" ry="22.9"/>
		</g>
	</g>
</g>
</svg>
