<?xml version="1.0" encoding="utf-8"?>
<!-- Generator: Adobe Illustrator 18.0.0, SVG Export Plug-In . SVG Version: 6.00 Build 0)  -->
<!DOCTYPE svg PUBLIC "-//W3C//DTD SVG 1.1//EN" "http://www.w3.org/Graphics/SVG/1.1/DTD/svg11.dtd">
<svg version="1.1" id="Layer_1" xmlns="http://www.w3.org/2000/svg" xmlns:xlink="http://www.w3.org/1999/xlink" x="0px" y="0px"
	 viewBox="0 0 406 243" enable-background="new 0 0 406 243" xml:space="preserve">
<g>
	<g>
		<g>
			<path fill="#E6E6E5" d="M406,9V5.3c0-3.5-2.8-5.3-6.4-5.3H183.3c-3.5,0-7.3,1.9-7.3,5.3V9H406z"/>
			<path fill="#CDCCCC" d="M176,9v172.5c0,3.5,3.8,6.5,7.3,6.5h216.3c3.5,0,6.4-3,6.4-6.5V9H176z"/>
			<ellipse fill="#989898" cx="183.6" cy="4.3" rx="1.9" ry="1.9"/>
			<ellipse fill="#F3F3F3" cx="190.7" cy="4.3" rx="1.9" ry="1.9"/>
			<ellipse fill="#818181" cx="198.2" cy="4.3" rx="1.9" ry="1.9"/>
		</g>
		<rect x="210" y="18" fill="#A09F9F" width="165" height="170"/>
		<rect x="213" y="23" fill="#ABABAB" width="53" height="13"/>
		<rect x="316" y="29" fill="#ABABAB" width="53" height="115"/>
		<rect x="213" y="167" fill="#ABABAB" width="53" height="16"/>
		<rect x="213" y="146" fill="#ABABAB" width="53" height="16"/>
		<rect x="213" y="120" fill="#ABABAB" width="53" height="16"/>
	</g>
	<linearGradient id="SVGID_1_" gradientUnits="userSpaceOnUse" x1="209.891" y1="121.4238" x2="263.6263" y2="121.4238">
		<stop  offset="0" style="stop-color:#010101;stop-opacity:0.1263"/>
		<stop  offset="0.919" style="stop-color:#010101;stop-opacity:0"/>
	</linearGradient>
	<path fill="url(#SVGID_1_)" d="M223.9,55.1c0,0,7.7-2.1,11.1,9.2l28.6,123.6l-53.7-1.3L223.9,55.1z"/>
	<g>
		<g>
			<path fill="#E6E6E5" d="M230,64v-3.6c0-3.5-2.5-5.4-6.1-5.4H7.6C4.1,55,0,57,0,60.4V64H230z"/>
			<path fill="#B7E4F8" d="M0.1,64.3v172.3c0,3.5,4,6.4,7.6,6.4h216.3c3.5,0,6.4-2.9,6.4-6.4V64.3H0.1z"/>
			<ellipse fill="#F26C6E" cx="7.9" cy="59.4" rx="1.9" ry="1.9"/>
			<ellipse fill="#FEDB2B" cx="14.9" cy="59.4" rx="1.9" ry="1.9"/>
			<ellipse fill="#59BA47" cx="22.5" cy="59.4" rx="1.9" ry="1.9"/>
		</g>
		<rect x="8" y="75" opacity="0.3" fill="#95D8EB" width="213" height="54"/>
		<rect x="116" y="134" opacity="0.3" fill="#95D8EB" width="105" height="64"/>
		<rect x="8" y="202" opacity="0.3" fill="#95D8EB" width="213" height="41"/>
		<rect x="8" y="134" opacity="0.3" fill="#95D8EB" width="105" height="64"/>
	</g>
</g>
</svg>
