<?xml version="1.0" encoding="utf-8"?>
<!-- Generator: Adobe Illustrator 18.0.0, SVG Export Plug-In . SVG Version: 6.00 Build 0)  -->
<!DOCTYPE svg PUBLIC "-//W3C//DTD SVG 1.1//EN" "http://www.w3.org/Graphics/SVG/1.1/DTD/svg11.dtd">
<svg version="1.1" id="Layer_1" xmlns="http://www.w3.org/2000/svg" xmlns:xlink="http://www.w3.org/1999/xlink" x="0px" y="0px"
	 viewBox="0 0 237.6 225.5" enable-background="new 0 0 237.6 225.5" xml:space="preserve">
<g>
	<circle fill="#CE4946" cx="102.7" cy="112.7" r="102.7"/>
	<linearGradient id="SVGID_1_" gradientUnits="userSpaceOnUse" x1="1.0923" y1="117.7441" x2="218.4888" y2="117.7441">
		<stop  offset="0.6243" style="stop-color:#010101;stop-opacity:0.1263"/>
		<stop  offset="1" style="stop-color:#010101;stop-opacity:0"/>
	</linearGradient>
	<path fill="url(#SVGID_1_)" d="M115.7,10C59,10,1.1,58.2,1.1,117.7c0,59.5,57.9,107.7,114.7,107.7c56.7,0,102.7-48.2,102.7-107.7
		C218.5,58.2,172.5,10,115.7,10z"/>
	<g>
		<circle fill="#F2665B" cx="102.7" cy="102.7" r="102.7"/>
		<circle fill="#F3F3F3" cx="102.7" cy="102.7" r="86.9"/>
		<circle fill="#F2665B" cx="102.7" cy="102.7" r="72.7"/>
		<circle fill="#F3F3F3" cx="102.7" cy="102.7" r="61.4"/>
		<circle fill="#F2665B" cx="102.7" cy="102.7" r="47"/>
		<circle fill="#F3F3F3" cx="102.7" cy="102.7" r="32.6"/>
		<circle fill="#F2665B" cx="102.6" cy="102.7" r="13.5"/>
	</g>
	<g>
		<path fill="#E6E6E5" d="M104.6,130.7c0,0.8-0.6,1.3-1.4,1.3H103c-0.8,0-1.4-0.5-1.4-1.3v-26.1c0-0.8,0.6-1.6,1.4-1.6h0.2
			c0.8,0,1.4,0.8,1.4,1.6V130.7z"/>
		<g>
			<g>
				<path fill="#404B5E" d="M81.5,183.8c0,2.3,1.9,4.2,4.2,4.2h11.7c2.3,0,4.1-1.8,4.1-4.1v-11.7c0-2.3-1.8-4.2-4.2-4.2l-8.1,2.5
					c-2.5,1-3.5,1.9-4.2,4.2L81.5,183.8z"/>
				<path fill="#404B5E" d="M123.6,183.8c0,2.3-1.9,4.2-4.2,4.2h-11.7c-2.3,0-5.1-1.8-5.1-4.1v-11.7c0-2.3,2.3-4.2,4.7-4.2l8.4,2.5
					c2.5,1,3.7,1.9,4.4,4.2L123.6,183.8z"/>
			</g>
			<path fill="#2C3039" d="M108.6,171.5c0,3.1-2.5,5.5-5.6,5.5h-0.8c-3.1,0-5.6-2.4-5.6-5.5v-50.8c0-3.1,2.5-5.8,5.6-5.8h0.8
				c3.1,0,5.6,2.7,5.6,5.8V171.5z"/>
			<linearGradient id="SVGID_2_" gradientUnits="userSpaceOnUse" x1="99.18" y1="176.853" x2="107.875" y2="176.245">
				<stop  offset="0.292" style="stop-color:#010101;stop-opacity:0.1263"/>
				<stop  offset="0.8735" style="stop-color:#010101;stop-opacity:0"/>
			</linearGradient>
			<path fill="url(#SVGID_2_)" d="M107.8,176.6c0,6.4-3.1,11.6-5.4,11.6c-2.3,0-3.1-5.2-3.1-11.6c0-6.4,1.9-11.6,4.2-11.6
				C105.9,165,107.8,170.2,107.8,176.6z"/>
			<ellipse fill="#364051" cx="102.4" cy="176.6" rx="3.1" ry="11.6"/>
		</g>
		<rect x="96.6" y="148" fill="#404B5E" width="12" height="5"/>
	</g>
	<linearGradient id="SVGID_3_" gradientUnits="userSpaceOnUse" x1="99.4236" y1="114.0356" x2="224.5944" y2="222.8449">
		<stop  offset="0" style="stop-color:#010101;stop-opacity:0.1263"/>
		<stop  offset="0.5796" style="stop-color:#010101;stop-opacity:0"/>
	</linearGradient>
	<path fill="url(#SVGID_3_)" d="M120,174.7c-0.7-2.3-1.9-3.3-4.4-4.2l-7.1-2.1v-15.2v-5v-27.4c0-2.5-1.7-4.7-4-5.4v-10.8
		c0-0.8-0.6-1.6-1.4-1.6H103c-0.8,0,134.6,44.3,134.6,45.1l-24.3,64.4c-2.8,0.3-17.7,30.3-91.3-4.1c0,0-38.5-20.4-36.1-20.4h11.7
		c1.4,0,2.6-0.6,3.3-1.7c0.5,1.1,1,1.8,1.6,1.8c0.6,0,1.1-0.6,1.5-1.6c1,0.9,2.5,1.5,3.8,1.5h11.7c2.3,0,4.2-1.8,4.2-4.2L120,174.7z
		"/>
</g>
</svg>
